<?xml version="1.0" encoding="UTF-8" standalone="no"?>
<!-- Created with Inkscape (http://www.inkscape.org/) -->

<svg
   xmlns:dc="http://purl.org/dc/elements/1.1/"
   xmlns:cc="http://creativecommons.org/ns#"
   xmlns:rdf="http://www.w3.org/1999/02/22-rdf-syntax-ns#"
   xmlns:svg="http://www.w3.org/2000/svg"
   xmlns="http://www.w3.org/2000/svg"
   xmlns:sodipodi="http://sodipodi.sourceforge.net/DTD/sodipodi-0.dtd"
   xmlns:inkscape="http://www.inkscape.org/namespaces/inkscape"
   width="744.09448819"
   height="1052.3622047"
   id="svg7418"
   version="1.1"
   inkscape:version="0.48.5 r10040"
   sodipodi:docname="New document 4">
  <defs
     id="defs7420" />
  <sodipodi:namedview
     id="base"
     pagecolor="#ffffff"
     bordercolor="#666666"
     borderopacity="1.0"
     inkscape:pageopacity="0.0"
     inkscape:pageshadow="2"
     inkscape:zoom="0.35"
     inkscape:cx="375"
     inkscape:cy="520"
     inkscape:document-units="px"
     inkscape:current-layer="layer1"
     showgrid="false"
     inkscape:window-width="1507"
     inkscape:window-height="1241"
     inkscape:window-x="579"
     inkscape:window-y="247"
     inkscape:window-maximized="0" />
  <metadata
     id="metadata7423">
    <rdf:RDF>
      <cc:Work
         rdf:about="">
        <dc:format>image/svg+xml</dc:format>
        <dc:type
           rdf:resource="http://purl.org/dc/dcmitype/StillImage" />
        <dc:title></dc:title>
      </cc:Work>
    </rdf:RDF>
  </metadata>
  <g
     inkscape:label="Layer 1"
     inkscape:groupmode="layer"
     id="layer1">
    <g
       transform="matrix(12.815911,0,0,12.815911,-1942.9742,-4492.1803)"
       id="g4252">
      <rect
         style="fill:#ffffff;fill-rule:evenodd"
         x="165.97301"
         y="405.19199"
         clip-rule="evenodd"
         width="2.0309999"
         height="9.5190001"
         id="rect4254" />
      <g
         id="g4256">
        <path
           style="fill:#ffd400"
           inkscape:connector-curvature="0"
           d="m 197.004,376.048 c -0.003,-3.44 -2.769,-6.228 -6.195,-6.271 l 0,0 c -0.228,0.024 -0.462,-0.052 -0.638,-0.227 l 0,0 v -0.003 c -0.309,-0.304 -0.309,-0.8 0,-1.108 l 0,0 c 0.113,-0.113 0.249,-0.183 0.396,-0.214 l 0,0 c 0,0 0.003,0 0.005,0 l 0,0 c 0.003,-0.002 0.009,-0.002 0.013,-0.002 l 0,0 c 0.047,-0.008 0.096,-0.014 0.144,-0.014 l 0,0 c 4.327,0 7.84,3.506 7.843,7.839 l 0,0 c 0,0.435 -0.35,0.786 -0.783,0.786 l 0,0 c -0.435,0 -0.785,-0.351 -0.785,-0.786 l 0,0 z m 11.295,-0.014 c -0.019,-9.701 -7.88,-17.549 -17.58,-17.549 l 0,0 v 0.004 c -0.433,0 -0.784,-0.353 -0.784,-0.785 l 0,0 c 0,-0.435 0.352,-0.783 0.784,-0.783 l 0,0 c 10.563,0 19.129,8.546 19.148,19.109 l 0,0 c 0,0.434 -0.352,0.783 -0.784,0.787 l 0,0 c -0.434,0 -0.784,-0.352 -0.784,-0.783 l 0,0 z"
           id="path4258" />
        <path
           style="fill:#ffd400"
           inkscape:connector-curvature="0"
           d="m 202.653,376.042 c -0.016,-6.562 -5.308,-11.871 -11.857,-11.909 l 0,0 c -0.312,0.028 -0.625,-0.133 -0.773,-0.43 l 0,0 c -0.195,-0.392 -0.037,-0.859 0.353,-1.054 l 0,0 c 0.044,0.007 -0.068,-0.035 0.352,-0.085 l 0,0 c 7.447,0 13.479,6.029 13.493,13.474 l 0,0 c 0,0.434 -0.35,0.785 -0.783,0.788 l 0,0 c -0.434,-0.001 -0.785,-0.351 -0.785,-0.784 l 0,0 z"
           id="path4260" />
      </g>
      <path
         style="fill:#ffffff;fill-rule:evenodd"
         inkscape:connector-curvature="0"
         clip-rule="evenodd"
         d="m 159.278,406.964 0.121,0.354 0.203,0.305 0.253,0.293 0.295,0.253 0.313,0.253 0.354,0.203 0.395,0.202 0.8,0.263 0.789,0.183 0.78,0.051 0.171,-0.03 0.153,-0.021 0.292,-0.051 v -5.729 h 1.579 2.147 7.914 0.234 7.967 2.278 1.215 v 5.78 l 0.294,0.069 0.322,0.031 h 0.092 0.273 l 0.404,-0.05 0.79,-0.152 0.801,-0.303 0.403,-0.173 0.344,-0.232 0.325,-0.244 0.294,-0.253 0.252,-0.292 0.203,-0.305 0.121,-0.354 0.071,-0.344 1.741,-16.248 -1.539,-14.315 -0.131,-0.658 -0.173,-0.596 -0.223,-0.557 -0.294,-0.516 -0.374,-0.485 -0.476,-0.426 -0.546,-0.374 -0.648,-0.324 -0.839,-0.375 -0.781,-0.273 -0.092,-0.03 -0.869,-0.262 -0.871,-0.254 -0.091,-0.02 -1.68,-0.334 -0.599,-0.081 -1.164,-0.172 -1.761,-0.172 -1.772,-0.101 -3.27,-0.122 -0.234,-0.01 -3.531,0.132 -1.771,0.101 -1.741,0.172 -0.87,0.131 -0.892,0.122 -0.87,0.151 -0.386,0.081 -0.484,0.122 -0.842,0.254 -0.698,0.211 -0.171,0.051 -0.871,0.303 -0.851,0.375 -0.647,0.324 -0.547,0.374 -0.466,0.426 -0.374,0.485 -0.304,0.516 -0.244,0.557 -0.15,0.596 -0.121,0.658 -1.539,14.284 1.73,16.228 0.084,0.344 z m 26.502,-9.343 -0.11,0.324 -0.162,0.282 -0.213,0.255 -0.252,0.211 -0.304,0.162 -0.324,0.102 -0.375,0.041 -0.344,-0.041 -0.335,-0.102 -0.293,-0.162 -0.283,-0.211 -0.213,-0.255 -0.162,-0.282 -0.08,-0.324 -0.051,-0.354 0.051,-0.354 0.08,-0.314 0.162,-0.313 0.213,-0.252 0.283,-0.213 0.293,-0.162 0.335,-0.092 0.344,-0.05 0.375,0.05 0.324,0.092 0.304,0.162 0.252,0.213 0.213,0.252 0.162,0.313 0.11,0.314 0.031,0.354 -0.031,0.354 z m 4.172,0 -0.101,0.324 -0.163,0.282 -0.212,0.255 -0.273,0.211 -0.273,0.162 -0.355,0.102 -0.333,0.041 h -0.02 l -0.346,-0.041 -0.323,-0.102 -0.303,-0.162 -0.254,-0.211 -0.232,-0.255 -0.172,-0.282 -0.081,-0.324 -0.031,-0.354 0.031,-0.354 0.081,-0.314 0.172,-0.313 0.232,-0.252 0.254,-0.213 0.303,-0.162 0.323,-0.092 0.346,-0.05 h 0.02 l 0.333,0.05 0.355,0.092 0.273,0.162 0.273,0.213 0.212,0.252 0.163,0.313 0.101,0.314 0.041,0.354 -0.041,0.354 z m -8.746,-20.995 0.029,-0.212 0.081,-0.233 0.121,-0.212 0.173,-0.213 0.152,-0.163 0.192,-0.142 0.202,-0.09 0.182,-0.03 h 1.701 2.278 1.923 0.465 l 0.336,0.05 0.201,0.07 0.213,0.112 0.232,0.192 0.183,0.244 0.142,0.292 0.07,0.375 1.307,13.16 0.04,0.445 -0.069,0.334 -0.143,0.232 -0.181,0.163 -0.214,0.091 -0.223,0.05 -0.374,0.021 h -1.984 -1.923 -2.278 -1.63 l -0.272,-0.09 -0.254,-0.163 -0.192,-0.162 -0.152,-0.183 -0.223,-0.404 -0.11,-0.334 v -13.2 z m -8.869,-2.541 h 3.736 3.745 v 25.479 h -3.745 -3.736 v -25.479 z m -6.883,23.517 -0.081,0.322 -0.172,0.304 -0.202,0.255 -0.264,0.211 -0.304,0.162 -0.313,0.102 -0.354,0.041 h -0.011 l -0.354,-0.041 -0.335,-0.102 -0.303,-0.162 -0.255,-0.211 -0.202,-0.255 -0.16,-0.304 -0.103,-0.322 -0.039,-0.355 0.039,-0.344 0.103,-0.334 0.16,-0.304 0.202,-0.251 0.255,-0.223 0.303,-0.153 0.335,-0.121 0.354,-0.021 h 0.011 l 0.354,0.021 0.313,0.121 0.304,0.153 0.264,0.223 0.202,0.251 0.172,0.304 0.081,0.334 0.05,0.344 -0.05,0.355 z m 4.141,0 -0.092,0.322 -0.172,0.304 -0.203,0.255 -0.253,0.211 -0.283,0.162 -0.323,0.102 -0.344,0.041 -0.354,-0.041 -0.324,-0.102 -0.304,-0.162 -0.253,-0.211 -0.213,-0.255 -0.151,-0.304 -0.102,-0.322 -0.021,-0.355 0.021,-0.344 0.102,-0.334 0.151,-0.304 0.213,-0.251 0.253,-0.223 0.304,-0.153 0.324,-0.121 0.354,-0.021 0.344,0.021 0.323,0.121 0.283,0.153 0.253,0.223 0.203,0.251 0.172,0.304 0.092,0.334 0.04,0.344 -0.04,0.355 z m -8.879,-8.12 1.429,-12.766 0.089,-0.465 0.153,-0.354 0.192,-0.263 0.213,-0.152 0.182,-0.122 0.132,-0.051 0.122,-0.02 h 0.525 2.024 2.147 1.648 l 0.204,0.02 0.211,0.071 0.214,0.112 0.212,0.142 0.173,0.172 0.141,0.203 0.103,0.212 0.04,0.264 v 13.514 l -0.091,0.252 -0.092,0.213 -0.142,0.162 -0.132,0.162 -0.191,0.122 -0.212,0.09 -0.487,0.162 h -1.598 -2.147 -2.024 -1.448 l -0.302,-0.021 -0.305,-0.069 -0.304,-0.132 -0.263,-0.173 -0.203,-0.231 -0.141,-0.305 -0.092,-0.354 0.02,-0.395 z"
         id="path4262" />
      <rect
         style="fill:#ffffff;fill-rule:evenodd"
         x="168.755"
         y="407.79401"
         clip-rule="evenodd"
         width="14.526"
         height="2.128"
         id="rect4264" />
      <path
         style="fill:#ffffff;fill-rule:evenodd"
         inkscape:connector-curvature="0"
         clip-rule="evenodd"
         d="m 191.845,420.256 -2.055,-2.338 h 4.373 l -2.228,-2.42 h -4.271 l -1.185,-1.417 h -2.236 l 0.85,1.417 h -9.121 -9.09 l 0.86,-1.427 -2.177,0.01 -1.225,1.417 h -4.697 l -2.287,2.46 h 4.848 l -2.004,2.298 h -4.737 l -3.148,3.473 4.88,-0.01 -1.277,1.468 H 161 l 0.892,-1.468 14.081,-0.021 14.061,-0.02 0.973,1.62 h 5.264 l -1.427,-1.63 h 4.494 l -3.239,-3.412 h -4.254 z m -15.873,0 h -11.986 l 1.396,-2.308 10.59,-0.011 10.588,-0.01 1.409,2.328 h -11.997 z"
         id="path4266" />
      <rect
         style="fill:#ffffff;fill-rule:evenodd"
         x="184.202"
         y="404.17999"
         clip-rule="evenodd"
         width="1.994"
         height="9.3459997"
         id="rect4268" />
    </g>
  </g>
</svg>
